<mxfile host="65bd71144e">
    <diagram id="1EBe2tYzhHy3d0gjnNcR" name="Page-1">
        <mxGraphModel dx="2810" dy="1223" grid="1" gridSize="10" guides="1" tooltips="1" connect="1" arrows="1" fold="1" page="1" pageScale="1" pageWidth="850" pageHeight="1100" math="0" shadow="0">
            <root>
                <mxCell id="0"/>
                <mxCell id="1" parent="0"/>
                <mxCell id="42" value="" style="rounded=0;whiteSpace=wrap;html=1;labelBackgroundColor=none;fontSize=18;direction=south;fillColor=#647687;strokeColor=#314354;fontColor=#ffffff;" parent="1" vertex="1">
                    <mxGeometry x="-200" y="3.75" width="640" height="670" as="geometry"/>
                </mxCell>
                <mxCell id="36" value="" style="endArrow=none;html=1;labelBackgroundColor=#FFFFFF;fontSize=18;fontColor=#F7F7F7;" parent="1" edge="1">
                    <mxGeometry width="50" height="50" relative="1" as="geometry">
                        <mxPoint x="440" y="10" as="sourcePoint"/>
                        <mxPoint x="440" y="570" as="targetPoint"/>
                    </mxGeometry>
                </mxCell>
                <mxCell id="38" value="Home/Foreign Network" style="text;html=1;align=center;verticalAlign=middle;resizable=0;points=[];autosize=1;strokeColor=none;fillColor=none;fontSize=18;fontColor=#F7F7F7;" parent="1" vertex="1">
                    <mxGeometry x="5" y="30" width="200" height="30" as="geometry"/>
                </mxCell>
                <mxCell id="91" value="confirmTransaction()" style="edgeStyle=none;html=1;fontSize=13;startArrow=none;exitX=1;exitY=0.3333333333333333;exitDx=0;exitDy=0;exitPerimeter=0;" edge="1" parent="1" source="57" target="96">
                    <mxGeometry relative="1" as="geometry">
                        <mxPoint x="70" y="293.33333333333326" as="targetPoint"/>
                    </mxGeometry>
                </mxCell>
                <mxCell id="57" value="Signer" style="shape=umlActor;verticalLabelPosition=bottom;verticalAlign=top;html=1;outlineConnect=0;fillColor=#000000;" vertex="1" parent="1">
                    <mxGeometry x="-10" y="430" width="30" height="60" as="geometry"/>
                </mxCell>
                <mxCell id="99" value="1. submitTransaction(abi_encode(method_call(params))" style="edgeStyle=none;html=1;entryX=0.937;entryY=0.431;entryDx=0;entryDy=0;entryPerimeter=0;fontSize=13;" edge="1" parent="1" source="58" target="96">
                    <mxGeometry x="-0.4626" y="-21" relative="1" as="geometry">
                        <mxPoint as="offset"/>
                    </mxGeometry>
                </mxCell>
                <mxCell id="58" value="Signer" style="shape=umlActor;verticalLabelPosition=bottom;verticalAlign=top;html=1;outlineConnect=0;fillColor=#000000;" vertex="1" parent="1">
                    <mxGeometry x="310" y="320" width="30" height="60" as="geometry"/>
                </mxCell>
                <mxCell id="59" value="Signer" style="shape=umlActor;verticalLabelPosition=bottom;verticalAlign=top;html=1;outlineConnect=0;fillColor=#000000;" vertex="1" parent="1">
                    <mxGeometry x="-180" y="254.38" width="30" height="60" as="geometry"/>
                </mxCell>
                <mxCell id="60" value="Signer" style="shape=umlActor;verticalLabelPosition=bottom;verticalAlign=top;html=1;outlineConnect=0;fillColor=#000000;" vertex="1" parent="1">
                    <mxGeometry x="70" y="430" width="30" height="60" as="geometry"/>
                </mxCell>
                <mxCell id="83" value="confirmTransaction()" style="edgeStyle=none;html=1;entryX=0.75;entryY=0.1;entryDx=0;entryDy=0;entryPerimeter=0;fontSize=13;" edge="1" parent="1" source="61">
                    <mxGeometry relative="1" as="geometry">
                        <mxPoint x="65" y="284" as="targetPoint"/>
                    </mxGeometry>
                </mxCell>
                <mxCell id="61" value="Signer" style="shape=umlActor;verticalLabelPosition=bottom;verticalAlign=top;html=1;outlineConnect=0;fillColor=#000000;" vertex="1" parent="1">
                    <mxGeometry x="50" y="80" width="30" height="60" as="geometry"/>
                </mxCell>
                <mxCell id="62" value="Signer" style="shape=umlActor;verticalLabelPosition=bottom;verticalAlign=top;html=1;outlineConnect=0;fillColor=#000000;" vertex="1" parent="1">
                    <mxGeometry x="150" y="420" width="30" height="60" as="geometry"/>
                </mxCell>
                <mxCell id="63" value="Signer" style="shape=umlActor;verticalLabelPosition=bottom;verticalAlign=top;html=1;outlineConnect=0;fillColor=#000000;" vertex="1" parent="1">
                    <mxGeometry x="230" y="400" width="30" height="60" as="geometry"/>
                </mxCell>
                <mxCell id="92" value="confirmTransaction()" style="edgeStyle=none;html=1;entryX=0.25;entryY=0.1;entryDx=0;entryDy=0;entryPerimeter=0;fontSize=13;" edge="1" parent="1" source="64">
                    <mxGeometry relative="1" as="geometry">
                        <mxPoint x="55" y="284" as="targetPoint"/>
                    </mxGeometry>
                </mxCell>
                <mxCell id="64" value="Signer" style="shape=umlActor;verticalLabelPosition=bottom;verticalAlign=top;html=1;outlineConnect=0;fillColor=#000000;" vertex="1" parent="1">
                    <mxGeometry x="-150" y="170" width="30" height="60" as="geometry"/>
                </mxCell>
                <mxCell id="65" value="Signer" style="shape=umlActor;verticalLabelPosition=bottom;verticalAlign=top;html=1;outlineConnect=0;fillColor=#000000;" vertex="1" parent="1">
                    <mxGeometry x="-90" y="100" width="30" height="60" as="geometry"/>
                </mxCell>
                <mxCell id="82" value="confirmTransaction()" style="edgeStyle=none;html=1;fontSize=13;" edge="1" parent="1" source="66">
                    <mxGeometry x="-0.4881" y="-22" relative="1" as="geometry">
                        <mxPoint x="51.875" y="280" as="targetPoint"/>
                        <mxPoint as="offset"/>
                    </mxGeometry>
                </mxCell>
                <mxCell id="66" value="Signer" style="shape=umlActor;verticalLabelPosition=bottom;verticalAlign=top;html=1;outlineConnect=0;fillColor=#000000;" vertex="1" parent="1">
                    <mxGeometry x="-29.999999999999996" y="75" width="30" height="60" as="geometry"/>
                </mxCell>
                <mxCell id="67" value="Signer" style="shape=umlActor;verticalLabelPosition=bottom;verticalAlign=top;html=1;outlineConnect=0;direction=east;fillColor=#000000;" vertex="1" parent="1">
                    <mxGeometry x="105" y="80" width="30" height="60" as="geometry"/>
                </mxCell>
                <mxCell id="85" value="confrimTransaction()" style="edgeStyle=none;html=1;entryX=0.75;entryY=0.1;entryDx=0;entryDy=0;entryPerimeter=0;fontSize=13;" edge="1" parent="1" source="68">
                    <mxGeometry x="-0.2867" y="1" relative="1" as="geometry">
                        <mxPoint x="65" y="284" as="targetPoint"/>
                        <mxPoint as="offset"/>
                    </mxGeometry>
                </mxCell>
                <mxCell id="68" value="Signer" style="shape=umlActor;verticalLabelPosition=bottom;verticalAlign=top;html=1;outlineConnect=0;fillColor=#000000;" vertex="1" parent="1">
                    <mxGeometry x="180" y="70" width="30" height="60" as="geometry"/>
                </mxCell>
                <mxCell id="86" value="confirmTransaction()" style="edgeStyle=none;html=1;entryX=0.75;entryY=0.1;entryDx=0;entryDy=0;entryPerimeter=0;fontSize=13;" edge="1" parent="1" source="69">
                    <mxGeometry x="-0.4446" y="24" relative="1" as="geometry">
                        <mxPoint x="65" y="284" as="targetPoint"/>
                        <mxPoint as="offset"/>
                    </mxGeometry>
                </mxCell>
                <mxCell id="69" value="Signer" style="shape=umlActor;verticalLabelPosition=bottom;verticalAlign=top;html=1;outlineConnect=0;fillColor=#030303;" vertex="1" parent="1">
                    <mxGeometry x="250" y="90" width="30" height="60" as="geometry"/>
                </mxCell>
                <mxCell id="93" value="1" style="ellipse;whiteSpace=wrap;html=1;aspect=fixed;fontSize=13;fillColor=#F07A3E;" vertex="1" parent="1">
                    <mxGeometry x="165" y="318.75" width="40" height="40" as="geometry"/>
                </mxCell>
                <mxCell id="113" value="&lt;span style=&quot;background-color: rgb(240 , 240 , 240)&quot;&gt;method_call(params)&lt;/span&gt;" style="edgeStyle=none;html=1;labelBackgroundColor=none;fontSize=13;" edge="1" parent="1" source="96" target="112">
                    <mxGeometry relative="1" as="geometry"/>
                </mxCell>
                <mxCell id="96" value="Multisig" style="html=1;verticalLabelPosition=bottom;align=center;labelBackgroundColor=none;verticalAlign=top;strokeWidth=2;strokeColor=#006EAF;shadow=0;dashed=0;shape=mxgraph.ios7.icons.wallet;fontSize=13;fillColor=#1ba1e2;fontColor=#ffffff;" vertex="1" parent="1">
                    <mxGeometry x="40" y="278" width="30" height="24" as="geometry"/>
                </mxCell>
                <mxCell id="98" value="confirmTransactiion()" style="edgeStyle=none;html=1;entryX=0.5;entryY=0.5;entryDx=0;entryDy=0;entryPerimeter=0;fontSize=13;endArrow=none;" edge="1" parent="1" source="62" target="96">
                    <mxGeometry x="-0.4527" y="17" relative="1" as="geometry">
                        <mxPoint x="160" y="333.695652173913" as="sourcePoint"/>
                        <mxPoint x="60" y="300" as="targetPoint"/>
                        <mxPoint as="offset"/>
                    </mxGeometry>
                </mxCell>
                <mxCell id="103" value="&lt;span style=&quot;background-color: rgb(247 , 247 , 247)&quot;&gt;Submission event&lt;br&gt;index broadcasted&lt;/span&gt;" style="shape=flexArrow;endArrow=classic;html=1;fontSize=13;exitX=-0.023;exitY=0.791;exitDx=0;exitDy=0;exitPerimeter=0;endWidth=38;endSize=10.51;labelBackgroundColor=none;" edge="1" parent="1" source="96">
                    <mxGeometry x="0.6516" y="-30" width="50" height="50" relative="1" as="geometry">
                        <mxPoint x="5" y="294.38" as="sourcePoint"/>
                        <mxPoint x="-45" y="344.38" as="targetPoint"/>
                        <mxPoint as="offset"/>
                    </mxGeometry>
                </mxCell>
                <mxCell id="105" value="2" style="ellipse;whiteSpace=wrap;html=1;aspect=fixed;fontSize=13;fillColor=#F07A3E;" vertex="1" parent="1">
                    <mxGeometry x="-90" y="330" width="40" height="40" as="geometry"/>
                </mxCell>
                <mxCell id="106" value="3" style="ellipse;whiteSpace=wrap;html=1;aspect=fixed;fontSize=13;fillColor=#F07A3E;" vertex="1" parent="1">
                    <mxGeometry x="-40" y="190" width="40" height="40" as="geometry"/>
                </mxCell>
                <mxCell id="112" value="Bridge Contract" style="rounded=0;whiteSpace=wrap;html=1;labelBackgroundColor=none;fontSize=13;fillColor=#1ba1e2;fontColor=#ffffff;strokeColor=#006EAF;" vertex="1" parent="1">
                    <mxGeometry x="305" y="194.38" width="120" height="60" as="geometry"/>
                </mxCell>
                <mxCell id="114" value="4" style="ellipse;whiteSpace=wrap;html=1;aspect=fixed;fontSize=13;fillColor=#F07A3E;" vertex="1" parent="1">
                    <mxGeometry x="220" y="214.38" width="40" height="40" as="geometry"/>
                </mxCell>
            </root>
        </mxGraphModel>
    </diagram>
</mxfile>